<svg xmlns="http://www.w3.org/2000/svg" version="1.1" xmlns:xlink="http://www.w3.org/1999/xlink" xmlns:svgjs="http://svgjs.com/svgjs" width="1000" height="1000"><rect width="1000" height="1000" rx="200" ry="200" fill="#94c2ff"></rect><g transform="matrix(1.411183630269889,0,0,1.411183630269889,200.1879510786319,100.9662790214685)"><svg xmlns="http://www.w3.org/2000/svg" version="1.1" xmlns:xlink="http://www.w3.org/1999/xlink" xmlns:svgjs="http://svgjs.com/svgjs" width="425.2" height="566.9"><svg xmlns:dc="http://purl.org/dc/elements/1.1/" xmlns:cc="http://creativecommons.org/ns#" xmlns:rdf="http://www.w3.org/1999/02/22-rdf-syntax-ns#" xmlns:svg="http://www.w3.org/2000/svg" xmlns="http://www.w3.org/2000/svg" xmlns:sodipodi="http://sodipodi.sourceforge.net/DTD/sodipodi-0.dtd" xmlns:inkscape="http://www.inkscape.org/namespaces/inkscape" version="1.1" id="Ebene_1" x="0px" y="0px" viewBox="0 0 425.2 566.9" style="enable-background:new 0 0 425.2 566.9;" xml:space="preserve" sodipodi:docname="FIUS-more-edited.svg" inkscape:version="0.92.4 (5da689c313, 2019-01-14)"><metadata id="metadata59"><rdf:rdf><cc:work rdf:about=""><dc:format>image/svg+xml</dc:format><dc:type rdf:resource="http://purl.org/dc/dcmitype/StillImage"></dc:type><dc:title></dc:title></cc:work></rdf:rdf></metadata><defs id="defs57">
		
		
		
		
		
		
		
		
		
		
		
		
		
		
		
		
		
		
		
		
		
		
		
	</defs><sodipodi:namedview pagecolor="#ffffff" bordercolor="#666666" borderopacity="1" objecttolerance="10" gridtolerance="10" guidetolerance="10" inkscape:pageopacity="0" inkscape:pageshadow="2" inkscape:window-width="1920" inkscape:window-height="1007" id="namedview55" showgrid="false" inkscape:zoom="2" inkscape:cx="213.05627" inkscape:cy="121.16454" inkscape:window-x="0" inkscape:window-y="0" inkscape:window-maximized="1" inkscape:current-layer="g52"></sodipodi:namedview>
<style type="text/css" id="style2">
	.st0{fill:none;stroke:#000000;stroke-width:2;stroke-linecap:round;stroke-linejoin:round;stroke-miterlimit:10;}
</style>
<g id="g52">
	<path sodipodi:nodetypes="ccccssccsccsscsccc" inkscape:connector-curvature="0" id="path20" d="m 250.2,203.2 c 0,9.85916 -6,17.6 -16.3,19.6 -10.2,2 -19.9,-2.8 -23.7,-11.4 -1.2,-2.8 -1.9,-6.1 -1.9,-9.2 -0.2,-13.5 -0.1,-27 -0.1,-40.5 0,-5.2 2.9561,-7.78132 7.5487,-5.45581 2.26301,1.1459 2.5513,3.70055 2.5513,5.65581 0,10.8 -0.1,21.7 0,32.5 0,3.8 0.12146,7.41927 0.58125,11.2125 C 220.02154,215.01993 230.1,217 236.2,212.7 c 2.9,-2 3.6,-5.5 3.6,-8.9 0.1,-5.3 0,-10.7 0,-16 v -27 c 0,-2 0.2,-4.1 2.3,-4.4 2.2,-0.4 4.6,-0.2 6.7,0.4 0.7,0.2 1.1,2.2 1.2,3.5 0.1,6.5 0.1,19.5 0.1,19.5 0,0 0.0435,15.60013 0.1,23.4 z"></path><path sodipodi:nodetypes="ccccccccccsccccccccccc" inkscape:connector-curvature="0" id="path22" d="m 278,224.6 c -9.1,0.7 -15.6,-4.3 -21.7,-9.9 -1.6,-1.5 -1.6,-2.6 0.1,-3.7 5.1,-3.1 4.2,-5.2 10,0 4.8,4.3 10.2,6 16.5,3.8 3.8,-1.3 6.1,-4 6.8,-7.9 0.6,-3.3 0,-6.3 -3.2,-8.2 -5,-2.9 -10.1,-5.7 -15,-8.8 -3.2,-2 -6.5,-4 -9.4,-6.5 -6.9,-5.9 -5.4,-19.2 2.6,-24.2 8,-4.9 21.206,-4.48633 30.1,1.9 2.84512,2.04293 4.47095,3.18719 3.38125,5.15 -2.2,3.7 -4.88125,4.65 -7.58125,3.35 -1.6,-0.8 -3,-2 -4.6,-3 -3.9,-2.3 -7.9,-3.1 -12.4,-1.7 -5.7,1.9 -7.4,8.6 -3.1,12.8 1.6,1.6 3.7,2.9 5.6,4 4.7,2.8 9.5,5.4 14.3,8.1 0.7,0.4 1.4,0.8 2.1,1.3 5.8,4.1 8.6,9.4 7.5,16.7 -1.1,7.5 -5.4,12.4 -12.4,14.9 -3,1.3 -6.4,1.4 -9.6,1.9 z"></path><path inkscape:connector-curvature="0" id="path24" d="m 247.6,378.8 c 0.2,6.8 -2,11.7 -4.6,16.9 4.5,0.4 8.6,1 12.7,1 9.7,0.2 19.3,-0.1 29,0.1 10.1,0.2 12.6,-5.2 13.2,-12.6 0.6,-7.7 -0.5,-15.2 -2.6,-22.7 -0.9,-3 -1.6,-6 -2.5,-9.4 0.9,0.3 1.3,0.4 1.7,0.5 5.5,2 7.6,6.5 8.4,11.8 1.2,7.7 2.8,15.4 2.2,23.3 -0.3,3.6 -1,7.3 -2,10.7 -1.2,4.1 -3.9,7.1 -8.4,7.5 -4.4,0.5 -8.9,0.8 -13.4,0.7 -7.1,-0.3 -14.2,-1.1 -21.4,-1.6 -4.6,-0.4 -9.3,-0.6 -13.9,-0.9 -0.9,-0.1 -1.9,0.2 -3.4,0.3 2.5,5.7 5.2,11 4.9,18 -8.6,-10.1 -18.8,-16.8 -31.7,-21.6 12.4,-5.4 23.5,-10.8 31.8,-22 z"></path><path inkscape:connector-curvature="0" id="path26" d="m 132.1,188.29625 c 0,-9 0,-18 0,-27 0,-5 0.8,-5.9 5.7,-5.9 9.8,0 19.7,0 29.5,0 0.5,0 1,0 1.5,0 3.3,0.3 4.3,1.3 4.3,4.2 0,3.2 -1.2,4.5 -4.5,4.6 -7.8,0.1 -15.7,0 -23.5,0 -2.7,0 -2.8,-0.1 -2.8,2.5 -0.1,4.5 -0.1,9 0,13.5 0,2.7 0.2,2.9 2.9,2.9 5.3,0.1 10.7,0 16,0 3.3,0.1 4.1,0.9 4,4.2 0,3 -0.8,3.9 -3.8,4 -5.2,0.1 -10.3,0 -15.5,0 -3.6,0 -3.6,0.1 -3.6,3.5 0,7.2 0,14.3 0,21.5 0,1.6 0.5,3.9 -1.4,4.4 -2.1,0.6 -4.6,0.6 -6.7,0.2 -0.9,-0.2 -1.7,-2.3 -1.9,-3.7 -0.3,-2.5 -0.1,-5 -0.1,-7.5 -0.1,-7.1 -0.1,-14.2 -0.1,-21.4 z"></path><path inkscape:connector-curvature="0" id="path28" d="m 189.2,155.7 c 3.7,0 7.3,-0.1 11,0 2.7,0.1 3.6,1.1 3.7,3.6 0.1,2.6 -1.2,4.3 -3.5,4.6 -1.1,0.2 -2.3,0 -3.5,0 -2.6,0.1 -2.7,0.1 -2.7,2.9 0,10.8 0,21.6 0,32.5 0,3.8 0,7.7 0,11.5 0,1.4 0.5,2.2 2,2.1 1.2,0 2.3,-0.1 3.5,0 2.9,0.2 4.4,1.8 4.2,4.4 -0.1,2.6 -1.3,3.8 -4.1,3.8 -7.2,0.1 -14.3,0.1 -21.5,0 -3,0 -4.1,-1.2 -4.1,-3.7 0,-2.7 1.4,-4.2 4.2,-4.5 1.8,-0.2 4.2,0.2 5.1,-0.8 0.9,-1.1 0.5,-3.4 0.5,-5.2 0,-12.5 0,-25 0,-37.4 0,-1.2 0,-2.3 0,-3.5 0,-1.5 -0.7,-2.1 -2.1,-2 -1.2,0 -2.3,0.1 -3.5,0 -2.8,-0.2 -4.2,-1.7 -4.2,-4.5 0,-2.7 1,-3.7 4.1,-3.7 3.5,-0.1 7.2,-0.1 10.9,-0.1 z"></path><path sodipodi:nodetypes="ccccccccccccccc" inkscape:connector-curvature="0" id="path4" d="m 391.1,520.10002 h -258 V 352.90779 C 104.90851,331.79447 64.973519,300.08093 33.2,275.24061 l -0.1,-233.14063 358,0.01499 z M 383,50.200024 l -341.9,-0.2 V 137.7 c 0,42.8 0,91.09063 -0.1,133.89063 L 140.2,349.8 V 512.00002 L 383,512 Z"></path><path style="display:inline;stroke-width:0.80758631" d="m 356.216,490.20001 -186.40233,-0.081 V 340.89091 L 67.1808,261.53233 67.1,75.753024 356.216,75.764964 Z M 349.674,82.294329 73.560692,82.133024 73.479932,258.59502 175.5475,338.01672 v 145.6423 l 174.1265,-4.6e-4 z" id="path78" inkscape:connector-curvature="0" sodipodi:nodetypes="cccccccccccccc"></path><rect transform="rotate(45)" y="4.5231495" x="70.498543" height="3.75" width="27.5" id="rect99" style="opacity:1;fill:#000000;fill-opacity:1;stroke:none;stroke-width:1.18637979;stroke-linecap:butt;stroke-linejoin:miter;stroke-miterlimit:4;stroke-dasharray:none;stroke-dashoffset:0;stroke-opacity:1;paint-order:stroke fill markers"></rect><rect style="opacity:1;fill:#000000;fill-opacity:1;stroke:none;stroke-width:1.18637979;stroke-linecap:butt;stroke-linejoin:miter;stroke-miterlimit:4;stroke-dasharray:none;stroke-dashoffset:0;stroke-opacity:1;paint-order:stroke fill markers" id="rect4609" width="27.5" height="3.75" x="-244.19322" y="292.17273" transform="matrix(-0.74273283,0.66958789,0.66958789,0.74273283,0,0)"></rect><rect transform="rotate(37.69424)" y="168.13509" x="583.65619" height="3.75" width="27.5" id="rect4611" style="opacity:1;fill:#000000;fill-opacity:1;stroke:none;stroke-width:1.18637979;stroke-linecap:butt;stroke-linejoin:miter;stroke-miterlimit:4;stroke-dasharray:none;stroke-dashoffset:0;stroke-opacity:1;paint-order:stroke fill markers"></rect><rect style="opacity:1;fill:#000000;fill-opacity:1;stroke:none;stroke-width:1.18637979;stroke-linecap:butt;stroke-linejoin:miter;stroke-miterlimit:4;stroke-dasharray:none;stroke-dashoffset:0;stroke-opacity:1;paint-order:stroke fill markers" id="rect4613" width="27.5" height="3.75" x="168.60109" y="488.85941" transform="matrix(-0.79128501,0.61144749,0.61144749,0.79128501,0,0)"></rect><rect style="opacity:1;fill:#000000;fill-opacity:1;stroke:none;stroke-width:1.18637979;stroke-linecap:butt;stroke-linejoin:miter;stroke-miterlimit:4;stroke-dasharray:none;stroke-dashoffset:0;stroke-opacity:1;paint-order:stroke fill markers" id="rect4615" width="22" height="3.75" x="-48.008739" y="267.28815" transform="rotate(-19.441956)"></rect><rect transform="rotate(-19.441956)" y="376.23636" x="18.6103" height="3.75" width="23" id="rect4617" style="opacity:1;fill:#000000;fill-opacity:1;stroke:none;stroke-width:1.18637979;stroke-linecap:butt;stroke-linejoin:miter;stroke-miterlimit:4;stroke-dasharray:none;stroke-dashoffset:0;stroke-opacity:1;paint-order:stroke fill markers"></rect>
</g>
</svg></svg></g></svg>